<svg xmlns="http://www.w3.org/2000/svg" viewBox="0 0 135.47 135.47"><path fill="none" stroke="#fff" stroke-linecap="round" stroke-linejoin="round" stroke-width="9.03" d="M67.73 5.53c9.14 8.47 18.82 9.3 25.73 9.3v0c8.15-.21 11.12-4.62 13.37-5.34l10.38 8.24c-1.44 1.8-4.2 7.41-4.4 7.75-.77 1.25-8.75 14.77-.21 36.73 4.22 10.86 6.65 20.44-2.05 38.05-8.7 17.59-22.42 18.49-29.97 21.5-7.55 3.04-10.41 5.13-12.85 8.18m0-124.41c-9.13 8.47-18.8 9.3-25.74 9.3v0c-8.14-.21-11.1-4.62-13.37-5.34l-10.36 8.24c1.44 1.8 4.2 7.41 4.38 7.75.8 1.25 8.77 14.77.23 36.73-4.22 10.86-6.65 20.44 2.05 38.05 8.7 17.59 22.4 18.49 29.95 21.5 7.56 3.04 10.42 5.13 12.86 8.18" paint-order="markers fill stroke"/><path fill="#fff" d="M83.25 50c1.23 0 2.22-1 2.22-2.22V46.3c0-1.22-1-2.21-2.22-2.21H52.22c-1.23 0-2.22.99-2.22 2.21v1.48c0 1.23 1 2.22 2.22 2.22 0 8.4 4.7 15.5 11.16 17.74-6.45 2.24-11.16 9.33-11.16 17.73-1.23 0-2.22 1-2.22 2.22v1.48c0 1.22 1 2.21 2.22 2.21h31.03c1.23 0 2.22-.99 2.22-2.21v-1.48c0-1.23-1-2.22-2.22-2.22 0-8.4-4.7-15.5-11.16-17.73C78.54 65.49 83.25 58.4 83.25 50z"/></svg>