<svg xmlns="http://www.w3.org/2000/svg" viewBox="0 0 135.47 135.47"><path fill="#d81b60" stroke="#d81b60" stroke-linecap="round" stroke-linejoin="round" stroke-width="9.03" d="M67.73 5.53c9.14 8.47 18.82 9.3 25.73 9.3v0c8.15-.21 11.12-4.62 13.37-5.34l10.38 8.24c-1.44 1.8-4.2 7.41-4.4 7.75-.77 1.25-8.75 14.77-.21 36.73 4.22 10.86 6.65 20.44-2.05 38.05-8.7 17.59-22.42 18.49-29.97 21.5-7.55 3.04-10.41 5.13-12.85 8.18m0-124.41c-9.13 8.47-18.8 9.3-25.74 9.3v0c-8.14-.21-11.1-4.62-13.37-5.34l-10.36 8.24c1.44 1.8 4.2 7.41 4.38 7.75.8 1.25 8.77 14.77.23 36.73-4.22 10.86-6.65 20.44 2.05 38.05 8.7 17.59 22.4 18.49 29.95 21.5 7.56 3.04 10.42 5.13 12.86 8.18" paint-order="markers fill stroke"/><g fill="#fff" class="fa-group"><path d="M76.32 79.55H59.13a17.34 17.34 0 00-1.02 5.9h19.22a17.33 17.33 0 00-1.02-5.9zm-8.6-16.25c3.78 0 7.02-3.07 8.6-7.4H59.13c1.57 4.33 4.82 7.4 8.58 7.4z" class="fa-secondary" opacity=".4"/><path d="M83.25 50a2.22 2.22 0 002.23-2.23v-1.48a2.22 2.22 0 00-2.23-2.22H52.22a2.22 2.22 0 00-2.23 2.22v1.48a2.22 2.22 0 002.23 2.22c0 8.4 4.7 15.5 11.16 17.74-6.45 2.25-11.16 9.32-11.16 17.75a2.22 2.22 0 00-2.23 2.22v1.47a2.22 2.22 0 002.23 2.21h31.03a2.22 2.22 0 002.23-2.2V87.7a2.22 2.22 0 00-2.23-2.22c0-8.41-4.7-15.5-11.16-17.75 6.45-2.24 11.16-9.33 11.16-17.74zm-5.9 35.48H58.12c0-7.15 4.28-13.3 9.6-13.3 5.35 0 9.63 6.13 9.63 13.3zM67.73 63.3c-5.33 0-9.6-6.16-9.6-13.3h19.22c0 7.14-4.28 13.3-9.62 13.3z" class="fa-primary"/></g></svg>