<svg xmlns="http://www.w3.org/2000/svg" viewBox="0 0 135.47 135.47"><path fill="#3b3150" stroke="#37474f" stroke-width=".2698716" d="M0 0h135.47v135.47H0z"/><path fill="#00acc1" stroke="#00acc1" stroke-linecap="round" stroke-linejoin="round" stroke-width="5.8101768" d="M67.73 27.71c5.88 5.45 12.11 5.99 16.56 5.99h0c5.24-.14 7.15-2.98 8.6-3.44l6.68 5.3c-.93 1.16-2.7 4.77-2.83 4.99-.5.8-5.63 9.5-.14 23.63 2.72 6.99 4.28 13.15-1.32 24.48-5.6 11.32-14.42 11.9-19.28 13.84-4.86 1.95-6.7 3.3-8.27 5.26m0-80.05c-5.87 5.45-12.1 5.99-16.56 5.99h0c-5.24-.14-7.14-2.98-8.6-3.44l-6.67 5.3c.93 1.16 2.7 4.77 2.82 4.99.51.8 5.64 9.5.15 23.63-2.72 6.99-4.28 13.15 1.32 24.48 5.6 11.32 14.41 11.9 19.27 13.84 4.86 1.95 6.7 3.3 8.27 5.26" paint-order="markers fill stroke"/><g fill="#fff" class="fa-group"><path d="M73.26 75.34H62.2a11.16 11.16 0 00-.66 3.8h12.37a11.15 11.15 0 00-.66-3.8zm-5.53-10.46c2.43 0 4.51-1.97 5.53-4.76H62.2c1.01 2.79 3.1 4.76 5.52 4.76z" class="fa-secondary" opacity=".4"/><path d="M77.72 56.32a1.43 1.43 0 001.43-1.43v-.95a1.43 1.43 0 00-1.43-1.43H57.75a1.43 1.43 0 00-1.43 1.43v.95a1.43 1.43 0 001.43 1.43c0 5.4 3.03 9.97 7.18 11.41-4.15 1.45-7.18 6-7.18 11.42a1.43 1.43 0 00-1.43 1.43v.95a1.43 1.43 0 001.43 1.42h19.97a1.43 1.43 0 001.43-1.42v-.95a1.43 1.43 0 00-1.43-1.43c0-5.41-3.03-9.97-7.18-11.42 4.15-1.44 7.18-6 7.18-11.41zm-3.8 22.83H61.55c0-4.6 2.75-8.56 6.18-8.56 3.44 0 6.19 3.95 6.19 8.56zm-6.19-14.27c-3.43 0-6.18-3.96-6.18-8.56h12.37c0 4.6-2.75 8.56-6.19 8.56z" class="fa-primary"/></g></svg>