<svg xmlns="http://www.w3.org/2000/svg" viewBox="0 0 135.47 135.47"><path fill="#263238" stroke="#37474f" stroke-width=".27" d="M0 0h135.47v135.47H0z"/><path fill="#00acc1" stroke="#00acc1" stroke-linecap="round" stroke-linejoin="round" stroke-width="5.81" d="M67.73 27.71c5.88 5.45 12.11 5.99 16.56 5.99h0c5.24-.14 7.15-2.98 8.6-3.44l6.68 5.3c-.93 1.16-2.7 4.77-2.83 4.99-.5.8-5.63 9.5-.14 23.63 2.72 6.99 4.28 13.15-1.32 24.48-5.6 11.32-14.42 11.9-19.28 13.84-4.86 1.95-6.7 3.3-8.27 5.26m0-80.05c-5.87 5.45-12.1 5.99-16.56 5.99h0c-5.24-.14-7.14-2.98-8.6-3.44l-6.67 5.3c.93 1.16 2.7 4.77 2.82 4.99.51.8 5.64 9.5.15 23.63-2.72 6.99-4.28 13.15 1.32 24.48 5.6 11.32 14.41 11.9 19.27 13.84 4.86 1.95 6.7 3.3 8.27 5.26" paint-order="markers fill stroke"/><path fill="ivory" d="M77.77 56.27c.8 0 1.43-.65 1.43-1.44v-.95c0-.8-.64-1.44-1.43-1.44H57.7c-.8 0-1.43.64-1.43 1.44v.95c0 .8.64 1.44 1.43 1.44 0 5.43 3.05 10.02 7.22 11.46-4.17 1.45-7.22 6.04-7.22 11.47-.8 0-1.43.65-1.43 1.44v.95c0 .8.64 1.44 1.43 1.44h20.07c.8 0 1.43-.64 1.43-1.44v-.95c0-.8-.64-1.44-1.43-1.44 0-5.43-3.05-10.02-7.22-11.46 4.17-1.45 7.22-6.04 7.22-11.47z"/></svg>