<svg width="128" height="128" viewBox="0 0 128 128" fill="none" xmlns="http://www.w3.org/2000/svg">
<path d="M107.241 29.0011C108.237 27.7482 107.867 18.9951 107.867 18.9951L97 15.4735V51H100.927C100.135 41.2356 103.552 35.5929 103.792 35.2066C103.804 35.1862 103.817 35.1656 103.829 35.1449C103.909 35.0077 104.086 34.6592 104.258 34.3183L104.384 34.0716C104.637 33.5741 104.966 32.9308 105.325 32.254C106.095 30.8011 106.841 29.5053 107.241 29.0011Z" fill="url(#paint0_linear_103_97)"/>
<path d="M20.693 29.0011C19.6972 27.7482 20.0672 18.9951 20.0672 18.9951L30.9343 15.4735V51H27.0076C27.799 41.2356 24.3819 35.5929 24.1425 35.2066C24.1299 35.1862 24.1175 35.1656 24.1053 35.1449C24.025 35.0077 23.8485 34.6592 23.6758 34.3183L23.5508 34.0716C23.2978 33.5741 22.9683 32.9308 22.6094 32.254C21.839 30.8011 21.0937 29.5053 20.693 29.0011Z" fill="url(#paint1_linear_103_97)"/>
<path d="M20.7191 78.1465C20.7599 72.8915 20.7191 70 20.7191 70H107.215C107.215 70 107.174 72.8915 107.215 78.1465C107.258 83.6875 105.798 89.8161 102.051 97.4637L102.05 97.4646C95.524 110.773 85.4379 113.823 79.0509 115.754C77.764 116.143 76.6273 116.487 75.7001 116.86C69.7101 119.284 67.8441 120.794 66.2726 122.76C66.1715 122.893 66.0577 123.018 65.9315 123.134C65.8153 123.242 65.6915 123.339 65.5615 123.424C65.091 123.736 64.5568 123.893 64.0233 123.904C63.7923 123.91 63.5591 123.887 63.3285 123.835C62.7468 123.706 62.2012 123.398 61.7816 122.921C61.7489 122.884 61.7169 122.846 61.6857 122.806L61.6802 122.8C60.102 120.814 58.2513 119.3 52.2213 116.86C51.2943 116.487 50.1583 116.143 48.8726 115.754C42.4881 113.822 32.4108 110.774 25.8839 97.4646L25.8835 97.4637C22.1365 89.8161 20.676 83.6875 20.7191 78.1465Z" fill="url(#paint2_linear_103_97)"/>
<path d="M63.9607 9C71.5335 16.0806 79.5571 16.7821 85.2882 16.7821C92.0367 16.6003 94.4966 12.9106 96.3641 12.3129L104.967 19.1986C103.769 20.7057 101.49 25.3958 101.322 25.6816C100.678 26.7209 94.0716 38.0239 101.142 56.3814C104.645 65.4627 106.654 73.4657 99.4421 88.1855C92.2299 102.892 80.8707 103.646 74.6116 106.166C68.3524 108.7 65.9827 110.454 63.9607 113V9ZM63.9607 9C56.4008 16.0806 48.3772 16.7821 42.6332 16.7821C35.8847 16.6003 33.4377 12.9106 31.5574 12.3129L22.9672 19.1986C24.1649 20.7057 26.4445 25.3958 26.599 25.6816C27.2558 26.7209 33.8627 38.0239 26.7922 56.3814C23.2891 65.4627 21.28 73.4657 28.4922 88.1855C35.7044 102.892 47.0507 103.646 53.3099 106.166C59.569 108.7 61.9387 110.454 63.9607 113" fill="#00ACC1"/>
<path d="M63.9607 9C56.4008 16.0806 48.3772 16.7821 42.6332 16.7821C35.8847 16.6003 33.4377 12.9106 31.5574 12.3129L22.9672 19.1986C24.1649 20.7057 26.4445 25.3958 26.599 25.6816C27.2558 26.7209 33.8627 38.0239 26.7922 56.3814C23.2891 65.4627 21.28 73.4657 28.4922 88.1855C35.7044 102.892 47.0507 103.646 53.3099 106.166C59.569 108.7 61.9387 110.454 63.9607 113M63.9607 9C71.5335 16.0806 79.5571 16.7821 85.2882 16.7821C92.0367 16.6003 94.4966 12.9106 96.364 12.3129L104.967 19.1986C103.769 20.7057 101.49 25.3958 101.322 25.6816C100.678 26.7209 94.0716 38.0239 101.142 56.3814C104.645 65.4627 106.654 73.4657 99.4421 88.1855C92.2299 102.892 80.8707 103.646 74.6116 106.166C68.3524 108.7 65.9827 110.454 63.9607 113V9Z" stroke="#00ACC1" stroke-width="5.81" stroke-linecap="round" stroke-linejoin="round"/>
<path d="M77.0963 46.1048C78.1429 46.1048 78.9672 45.2603 78.9672 44.234V42.9998C78.9672 41.9604 78.1298 41.1289 77.0963 41.1289H50.8381C49.7914 41.1289 48.9672 41.9604 48.9672 42.9998V44.234C48.9672 45.2733 49.8045 46.1048 50.8381 46.1048C50.8381 53.1594 54.8285 59.1227 60.2842 60.9935C54.8285 62.8773 50.8381 68.8406 50.8381 75.8952C49.7914 75.8952 48.9672 76.7397 48.9672 77.766V79.0002C48.9672 80.0396 49.8045 80.8711 50.8381 80.8711H77.0963C78.1429 80.8711 78.9672 80.0396 78.9672 79.0002V77.766C78.9672 76.7267 78.1298 75.8952 77.0963 75.8952C77.0963 68.8406 73.1059 62.8773 67.6501 61.0065C73.1059 59.1227 77.0963 53.1594 77.0963 46.1048Z" fill="#FFFFF0"/>
<defs>
<linearGradient id="paint0_linear_103_97" x1="108" y1="32" x2="100" y2="32" gradientUnits="userSpaceOnUse">
<stop stop-color="#0E7784"/>
<stop offset="1" stop-color="#096572"/>
</linearGradient>
<linearGradient id="paint1_linear_103_97" x1="19.9343" y1="32" x2="27.9343" y2="32" gradientUnits="userSpaceOnUse">
<stop stop-color="#0E7784"/>
<stop offset="1" stop-color="#096572"/>
</linearGradient>
<linearGradient id="paint2_linear_103_97" x1="21.0001" y1="96.5" x2="107" y2="96.5" gradientUnits="userSpaceOnUse">
<stop stop-color="#0E7784"/>
<stop offset="0.0177403" stop-color="#00ACC1"/>
<stop offset="0.139427" stop-color="#0E7784"/>
<stop offset="0.301908" stop-color="#0E7784"/>
<stop offset="0.395417" stop-color="#096572"/>
<stop offset="0.459914" stop-color="#0E8897"/>
<stop offset="0.494348" stop-color="#0E7784"/>
<stop offset="0.506152" stop-color="#0E7784"/>
<stop offset="0.540364" stop-color="#0E8897"/>
<stop offset="0.604472" stop-color="#096572"/>
<stop offset="0.697506" stop-color="#0E7784"/>
<stop offset="0.860243" stop-color="#0E7784"/>
<stop offset="0.982776" stop-color="#00ACC1"/>
<stop offset="1" stop-color="#0E7784"/>
</linearGradient>
</defs>
</svg>
