<svg width="16" height="16" viewBox="0 0 16 16" fill="none" xmlns="http://www.w3.org/2000/svg">
<path fill-rule="evenodd" clip-rule="evenodd" d="M11.302 1.19725C10.4125 1.19725 9.16729 1.08932 7.99203 0C6.81876 1.08932 5.57354 1.19725 4.6821 1.19725C3.93596 1.17732 3.52864 0.88349 3.25055 0.682891C3.13829 0.601911 3.0471 0.536124 2.96317 0.509682L1.63 1.56902C1.79026 1.76891 2.07532 2.33279 2.16624 2.51264C2.18077 2.5414 2.19035 2.56033 2.19365 2.5664C2.29559 2.7263 3.32095 4.46521 2.22363 7.28944C1.67997 8.68657 1.36817 9.9178 2.48747 12.1824C3.40589 14.0389 4.75628 14.4501 5.74804 14.7522C5.96496 14.8182 6.16473 14.8791 6.33906 14.9487C7.31045 15.3384 7.67823 15.6082 7.99203 16C8.30583 15.6082 8.6736 15.3384 9.64499 14.9487C9.81944 14.879 10.0194 14.8182 10.2366 14.752C11.2288 14.45 12.5803 14.0387 13.4986 12.1824C14.6179 9.9178 14.3061 8.68657 13.7624 7.28944C12.6651 4.46521 13.6905 2.7263 13.7904 2.5664C13.7952 2.55824 13.8113 2.52677 13.8355 2.47943C13.9419 2.27157 14.2046 1.75786 14.356 1.56902L13.0209 0.509682C12.9379 0.536012 12.8473 0.601357 12.7358 0.681868C12.4578 0.882489 12.0494 1.17728 11.302 1.19725ZM7.99203 10.9429H9.99879C10.1587 10.9429 10.2846 10.8174 10.2846 10.6605V10.4741C10.2846 10.3172 10.1567 10 9.99879 10C9.99879 8.93495 9.50006 8.5 8.55569 8C9.50006 7.5 10.0001 7.06505 10.0001 6C10.16 6 10.2846 5.56664 10.2846 5.41169V5.22536C10.2846 5.06844 10.1567 4.94291 9.99879 4.94291H7.99203H5.9873C5.8274 4.94291 5.70148 5.06844 5.70148 5.22536V5.41169C5.70148 5.5686 5.83067 6 5.98857 6C5.98857 7.06505 6.50006 7.5 7.4304 8C6.50006 8.5 5.9873 8.93495 5.9873 10C5.8274 10 5.70148 10.3192 5.70148 10.4741V10.6605C5.70148 10.8174 5.8294 10.9429 5.9873 10.9429H7.99203Z" fill="black"/>
</svg>
